<svg width="24" height="24" viewBox="0 0 24 24" fill="none" xmlns="http://www.w3.org/2000/svg">
<path fill-rule="evenodd" clip-rule="evenodd" d="M0.100006 3.99998C0.100006 3.50292 0.50295 3.09998 1.00001 3.09998H3.00001C3.40586 3.09998 3.76151 3.37161 3.86829 3.76317L4.51764 6.1441L19.0592 7.10192C19.5322 7.13308 19.9 7.52588 19.9 7.99998V14C19.9 14.4703 19.5379 14.8613 19.069 14.8973L6.06903 15.8973C5.63861 15.9304 5.2453 15.6533 5.13172 15.2368L2.9499 7.23678L2.31259 4.89998H1.00001C0.50295 4.89998 0.100006 4.49703 0.100006 3.99998ZM5.01861 7.981L6.67259 14.0456L18.1 13.1665V8.84264L5.01861 7.981ZM10 19C10 20.1045 9.10458 21 8.00001 21C6.89544 21 6.00001 20.1045 6.00001 19C6.00001 17.8954 6.89544 17 8.00001 17C9.10458 17 10 17.8954 10 19ZM16 21C17.1046 21 18 20.1045 18 19C18 17.8954 17.1046 17 16 17C14.8954 17 14 17.8954 14 19C14 20.1045 14.8954 21 16 21Z" fill="white"/>
</svg>
